<?xml version="1.0" encoding="UTF-8"?>
<svg version="1.1" xmlns="http://www.w3.org/2000/svg" width="100" height="100">
<path d="M0 0 C30.36 0 60.72 0 92 0 C92.020625 10.704375 92.04125 21.40875 92.0625 32.4375 C92.071604 35.82185303 92.08070801 39.20620605 92.09008789 42.69311523 C92.09300674 45.35660767 92.09555537 48.02010055 92.09765625 50.68359375 C92.10026962 51.38009537 92.102883 52.07659698 92.10557556 52.79420471 C92.11285608 54.83601779 92.11333839 56.87785168 92.11352539 58.91967773 C92.115746 60.07217514 92.11796661 61.22467255 92.12025452 62.41209412 C92 65 92 65 91 66 C88.20547729 66.10051875 85.43563645 66.13615894 82.640625 66.12939453 C81.32608337 66.13202301 81.32608337 66.13202301 79.98498535 66.13470459 C77.07330373 66.13912432 74.1616823 66.13618469 71.25 66.1328125 C69.23600248 66.1334855 67.22200505 66.1344555 65.20800781 66.13571167 C60.98111195 66.13718881 56.75423717 66.13503358 52.52734375 66.13037109 C47.09619468 66.1246738 41.66509501 66.12795272 36.23394775 66.13394356 C32.07340113 66.13754874 27.91286631 66.13641078 23.75231934 66.13381577 C21.74914545 66.13314638 19.74597051 66.13397533 17.74279785 66.13629532 C14.94829448 66.13882115 12.15387229 66.13498224 9.359375 66.12939453 C8.52297485 66.13141876 7.68657471 66.13344299 6.8248291 66.13552856 C1.11426242 66.11426242 1.11426242 66.11426242 0 65 C-0.09409479 62.97505769 -0.11743122 60.9468013 -0.11352539 58.91967773 C-0.11340454 57.60012085 -0.11328369 56.28056396 -0.11315918 54.92102051 C-0.10812269 53.50854445 -0.10295606 52.09606885 -0.09765625 50.68359375 C-0.09664917 49.40681763 -0.09564209 48.1300415 -0.09460449 46.8145752 C-0.08935266 42.02220773 -0.07539156 37.22985301 -0.0625 32.4375 C-0.041875 21.733125 -0.02125 11.02875 0 0 Z M42.6171875 15.15234375 C41.25980469 16.53099609 41.25980469 16.53099609 39.875 17.9375 C38.96492188 18.85402344 38.05484375 19.77054688 37.1171875 20.71484375 C34.88672783 22.60306002 34.88672783 22.60306002 35 24 C42.26 24 49.52 24 57 24 C52.23209107 18.26083236 52.23209107 18.26083236 47 13 C44.71219806 12.77656404 44.71219806 12.77656404 42.6171875 15.15234375 Z M35 36 C39.84674057 41.6937359 39.84674057 41.6937359 45 47 C48.42527887 45.52651292 50.64955058 43.59092154 53.25 40.9375 C53.95640625 40.22464844 54.6628125 39.51179688 55.390625 38.77734375 C57.11186865 37.27607496 57.11186865 37.27607496 57 36 C49.74 36 42.48 36 35 36 Z " fill="#000000" transform="translate(4,30)"/>
<path d="M0 0 C0.9075 0.00257812 1.815 0.00515625 2.75 0.0078125 C4.11125 0.00394531 4.11125 0.00394531 5.5 0 C7.75 0.1328125 7.75 0.1328125 8.75 1.1328125 C8.75 3.4428125 8.75 5.7528125 8.75 8.1328125 C20.63 8.1328125 32.51 8.1328125 44.75 8.1328125 C44.75 5.8228125 44.75 3.5128125 44.75 1.1328125 C45.75 0.1328125 45.75 0.1328125 48 0 C48.9075 0.00257812 49.815 0.00515625 50.75 0.0078125 C52.11125 0.00394531 52.11125 0.00394531 53.5 0 C55.75 0.1328125 55.75 0.1328125 56.75 1.1328125 C56.79092937 3.46578683 56.79241723 5.79986475 56.75 8.1328125 C58.35681641 8.11541016 58.35681641 8.11541016 59.99609375 8.09765625 C61.39322743 8.08827951 62.79036299 8.07917919 64.1875 8.0703125 C64.89455078 8.06193359 65.60160156 8.05355469 66.33007812 8.04492188 C68.13693559 8.03627662 69.94387603 8.08061239 71.75 8.1328125 C75.99918293 12.38199543 72.75 20.12356037 72.75 26.1328125 C42.39 26.1328125 12.03 26.1328125 -19.25 26.1328125 C-19.25 9.1328125 -19.25 9.1328125 -18.25 8.1328125 C-15.71950598 8.05967683 -13.21695163 8.04033723 -10.6875 8.0703125 C-9.97658203 8.07482422 -9.26566406 8.07933594 -8.53320312 8.08398438 C-6.77209987 8.09580386 -5.01103964 8.11373987 -3.25 8.1328125 C-3.270625 6.9984375 -3.29125 5.8640625 -3.3125 4.6953125 C-3.2334746 0.19086482 -3.2334746 0.19086482 0 0 Z M0.75 4.1328125 C0.75 8.0928125 0.75 12.0528125 0.75 16.1328125 C2.07 16.1328125 3.39 16.1328125 4.75 16.1328125 C4.75 12.1728125 4.75 8.2128125 4.75 4.1328125 C3.43 4.1328125 2.11 4.1328125 0.75 4.1328125 Z M48.75 4.1328125 C48.75 8.0928125 48.75 12.0528125 48.75 16.1328125 C50.07 16.1328125 51.39 16.1328125 52.75 16.1328125 C52.75 12.1728125 52.75 8.2128125 52.75 4.1328125 C51.43 4.1328125 50.11 4.1328125 48.75 4.1328125 Z " fill="#000000" transform="translate(23.25,-0.1328125)"/>
</svg>
