<?xml version="1.0" standalone="no"?>
<!DOCTYPE svg PUBLIC "-//W3C//DTD SVG 20010904//EN"
 "http://www.w3.org/TR/2001/REC-SVG-20010904/DTD/svg10.dtd">
<svg version="1.0" xmlns="http://www.w3.org/2000/svg"
 width="100.000000pt" height="100.000000pt" viewBox="0 0 100.000000 100.000000"
 preserveAspectRatio="xMidYMid meet">

<g transform="translate(0.000000,100.000000) scale(0.100000,-0.100000)"
fill="#000000" stroke="none">
<path d="M85 907 c-3 -7 -4 -82 -3 -167 l3 -155 68 -3 67 -3 0 -79 0 -79 -67
-3 -68 -3 0 -165 0 -165 165 0 165 0 3 67 3 68 79 0 79 0 3 -68 3 -67 165 0
165 0 0 165 0 165 -67 3 -68 3 0 79 0 79 68 3 67 3 0 165 0 165 -165 0 -165 0
-3 -67 -3 -68 -79 0 -79 0 -3 68 -3 67 -163 3 c-127 2 -164 0 -167 -11z m497
-244 l3 -78 78 -3 77 -3 0 -79 0 -79 -77 -3 -78 -3 -3 -77 -3 -78 -79 0 -79 0
-3 78 -3 77 -77 3 -78 3 0 79 0 79 78 3 77 3 3 78 3 77 79 0 79 0 3 -77z
m-432 -287 c0 -2 -7 -9 -15 -16 -12 -10 -15 -10 -15 4 0 9 7 16 15 16 8 0 15
-2 15 -4z m40 -61 c-57 -58 -65 -63 -68 -44 -5 30 73 109 107 109 23 0 19 -6
-39 -65z m50 -50 c-97 -98 -116 -112 -118 -94 -5 31 172 209 208 209 21 0 9
-16 -90 -115z m49 -51 c-69 -69 -100 -94 -119 -94 -21 0 -9 16 90 115 97 98
116 112 118 94 3 -16 -20 -45 -89 -115z m50 -50 c-28 -29 -52 -44 -68 -44 -23
0 -19 6 39 65 57 58 65 63 68 44 3 -15 -10 -35 -39 -65z m41 -29 c0 -8 -7 -15
-16 -15 -14 0 -14 3 -4 15 7 8 14 15 16 15 2 0 4 -7 4 -15z"/>
</g>
</svg>
