<?xml version="1.0" standalone="no"?>
<!DOCTYPE svg PUBLIC "-//W3C//DTD SVG 20010904//EN"
 "http://www.w3.org/TR/2001/REC-SVG-20010904/DTD/svg10.dtd">
<svg version="1.0" xmlns="http://www.w3.org/2000/svg"
 width="96.000000pt" height="96.000000pt" viewBox="0 0 96.000000 96.000000"
 preserveAspectRatio="xMidYMid meet">

<g transform="translate(0.000000,96.000000) scale(0.100000,-0.100000)"
fill="#000000" stroke="none">
<path d="M200 707 c-19 -6 -58 -34 -85 -62 -71 -70 -91 -145 -63 -239 16 -55
99 -138 154 -154 27 -8 121 -12 276 -12 278 0 304 6 371 80 90 100 90 220 0
320 -67 75 -92 80 -377 79 -145 -1 -255 -5 -276 -12z m143 -81 c103 -43 128
-177 48 -257 -65 -65 -157 -65 -222 0 -124 123 13 325 174 257z"/>
</g>
</svg>
