<?xml version="1.0" standalone="no"?>
<!DOCTYPE svg PUBLIC "-//W3C//DTD SVG 20010904//EN"
 "http://www.w3.org/TR/2001/REC-SVG-20010904/DTD/svg10.dtd">
<svg version="1.0" xmlns="http://www.w3.org/2000/svg"
 width="100.000000pt" height="100.000000pt" viewBox="0 0 100.000000 100.000000"
 preserveAspectRatio="xMidYMid meet">

<g transform="translate(0.000000,100.000000) scale(0.100000,-0.100000)"
fill="#000000" stroke="none">
<path d="M487 873 c-4 -3 -7 -83 -7 -177 l0 -171 -90 -90 -90 -89 -50 49 -50
50 -102 -103 c-81 -81 -100 -104 -90 -114 10 -10 31 6 102 77 l90 90 37 -38
38 -37 -138 -138 c-94 -94 -137 -144 -137 -160 l0 -22 500 0 500 0 0 22 c0 16
-43 66 -137 160 l-138 138 38 37 37 38 90 -90 c71 -71 92 -87 102 -77 10 10
-9 33 -90 114 l-102 103 -50 -50 -50 -49 -90 89 -91 90 3 85 3 84 88 35 c50
20 87 40 87 48 0 8 -43 34 -96 58 -101 47 -107 49 -117 38z m127 -492 c101
-101 107 -110 88 -120 -30 -16 -42 -14 -84 15 l-38 27 -40 -28 -40 -28 -40 28
-40 28 -38 -27 c-43 -29 -54 -31 -82 -14 -19 12 -13 20 87 120 59 60 110 108
113 108 3 0 54 -49 114 -109z"/>
</g>
</svg>
