<?xml version="1.0" standalone="no"?>
<!DOCTYPE svg PUBLIC "-//W3C//DTD SVG 20010904//EN"
 "http://www.w3.org/TR/2001/REC-SVG-20010904/DTD/svg10.dtd">
<svg version="1.0" xmlns="http://www.w3.org/2000/svg"
 width="100.000000pt" height="100.000000pt" viewBox="0 0 100.000000 100.000000"
 preserveAspectRatio="xMidYMid meet">

<g transform="translate(0.000000,100.000000) scale(0.100000,-0.100000)"
fill="#000000" stroke="none">
<path d="M180 900 c-19 -19 -20 -33 -20 -400 0 -367 1 -381 20 -400 19 -19 33
-20 320 -20 287 0 301 1 320 20 19 19 20 33 20 400 0 367 -1 381 -20 400 -19
19 -33 20 -320 20 -287 0 -301 -1 -320 -20z m540 -160 l0 -80 -220 0 -220 0 0
80 0 80 220 0 220 0 0 -80z m-360 -260 l0 -40 -40 0 -40 0 0 40 0 40 40 0 40
0 0 -40z m120 0 l0 -40 -40 0 -40 0 0 40 0 40 40 0 40 0 0 -40z m120 0 l0 -40
-40 0 -40 0 0 40 0 40 40 0 40 0 0 -40z m120 0 l0 -40 -40 0 -40 0 0 40 0 40
40 0 40 0 0 -40z m-360 -120 l0 -40 -40 0 -40 0 0 40 0 40 40 0 40 0 0 -40z
m120 0 l0 -40 -40 0 -40 0 0 40 0 40 40 0 40 0 0 -40z m120 0 l0 -40 -40 0
-40 0 0 40 0 40 40 0 40 0 0 -40z m120 0 l0 -40 -40 0 -40 0 0 40 0 40 40 0
40 0 0 -40z m-360 -120 l0 -40 -40 0 -40 0 0 40 0 40 40 0 40 0 0 -40z m120 0
l0 -40 -40 0 -40 0 0 40 0 40 40 0 40 0 0 -40z m120 0 l0 -40 -40 0 -40 0 0
40 0 40 40 0 40 0 0 -40z m120 0 l0 -40 -40 0 -40 0 0 40 0 40 40 0 40 0 0
-40z"/>
<path d="M480 740 c0 -13 7 -20 20 -20 13 0 20 7 20 20 0 13 -7 20 -20 20 -13
0 -20 -7 -20 -20z"/>
<path d="M560 740 c0 -13 7 -20 20 -20 13 0 20 7 20 20 0 13 -7 20 -20 20 -13
0 -20 -7 -20 -20z"/>
<path d="M640 740 c0 -13 7 -20 20 -20 13 0 20 7 20 20 0 13 -7 20 -20 20 -13
0 -20 -7 -20 -20z"/>
</g>
</svg>
