<?xml version="1.0" standalone="no"?>
<!DOCTYPE svg PUBLIC "-//W3C//DTD SVG 20010904//EN"
 "http://www.w3.org/TR/2001/REC-SVG-20010904/DTD/svg10.dtd">
<svg version="1.0" xmlns="http://www.w3.org/2000/svg"
 width="100.000000pt" height="100.000000pt" viewBox="0 0 100.000000 100.000000"
 preserveAspectRatio="xMidYMid meet">

<g transform="translate(0.000000,100.000000) scale(0.100000,-0.100000)"
fill="#000000" stroke="none">
<path d="M400 949 c-121 -24 -253 -127 -310 -243 -32 -64 -58 -182 -46 -211
12 -34 30 -7 42 64 30 176 145 304 314 347 165 42 344 -25 442 -166 21 -29 38
-57 38 -62 0 -4 -18 -1 -41 8 -30 13 -43 14 -52 5 -17 -17 -1 -27 91 -61 l83
-30 -3 97 c-2 79 -6 98 -18 98 -11 0 -16 -13 -18 -49 l-3 -48 -29 46 c-104
164 -294 243 -490 205z"/>
<path d="M926 508 c-2 -7 -9 -42 -15 -77 -52 -311 -415 -454 -666 -263 -44 33
-125 133 -125 153 0 5 19 2 41 -6 52 -19 59 -19 59 0 0 17 -22 30 -93 55 -29
10 -60 21 -70 25 -16 7 -18 0 -15 -91 2 -80 6 -99 18 -99 11 0 16 13 18 49 l3
48 28 -43 c133 -207 400 -278 612 -163 66 37 154 128 188 196 30 60 58 185 48
212 -8 19 -26 21 -31 4z"/>
</g>
</svg>
