<?xml version="1.0" encoding="UTF-8"?>
<svg version="1.1" xmlns="http://www.w3.org/2000/svg" width="100" height="100">
<path d="M0 0 C6.85521222 4.69851624 11.66028923 10.60714642 13.8359375 18.6796875 C14.95961727 29.32507483 13.86937194 37.17710341 7.296875 45.66796875 C2.30771583 51.18914726 -4.77611149 55.39139711 -12.1640625 56.6796875 C-14.07539423 56.75327888 -15.98695267 56.82433077 -17.89916992 56.86938477 C-25.77976144 57.08515975 -31.65541578 58.39375831 -38.9375 61.6015625 C-44.58625286 63.48903924 -50.28474886 63.07634284 -56.1640625 62.6796875 C-55.84765625 60.31640625 -55.84765625 60.31640625 -55.1640625 57.6796875 C-52.2265625 55.4921875 -52.2265625 55.4921875 -49.1640625 53.6796875 C-48.5040625 53.0196875 -47.8440625 52.3596875 -47.1640625 51.6796875 C-47.58756082 47.51384685 -50.12133869 44.99444319 -52.69140625 41.875 C-57.36000714 34.91544112 -56.83554028 26.72042137 -56.1640625 18.6796875 C-54.26944265 10.85161746 -49.09871666 4.24334319 -42.40625 -0.1171875 C-29.07941412 -7.58021559 -13.17729049 -8.03957434 0 0 Z M-38.1640625 12.6796875 C-38.1640625 13.9996875 -38.1640625 15.3196875 -38.1640625 16.6796875 C-26.9440625 16.6796875 -15.7240625 16.6796875 -4.1640625 16.6796875 C-4.1640625 15.3596875 -4.1640625 14.0396875 -4.1640625 12.6796875 C-15.3840625 12.6796875 -26.6040625 12.6796875 -38.1640625 12.6796875 Z M-38.1640625 22.6796875 C-38.1640625 23.9996875 -38.1640625 25.3196875 -38.1640625 26.6796875 C-26.9440625 26.6796875 -15.7240625 26.6796875 -4.1640625 26.6796875 C-4.1640625 25.3596875 -4.1640625 24.0396875 -4.1640625 22.6796875 C-15.3840625 22.6796875 -26.6040625 22.6796875 -38.1640625 22.6796875 Z M-38.1640625 32.6796875 C-38.1640625 33.9996875 -38.1640625 35.3196875 -38.1640625 36.6796875 C-30.2440625 36.6796875 -22.3240625 36.6796875 -14.1640625 36.6796875 C-14.1640625 35.3596875 -14.1640625 34.0396875 -14.1640625 32.6796875 C-22.0840625 32.6796875 -30.0040625 32.6796875 -38.1640625 32.6796875 Z " fill="#000000" transform="translate(60.1640625,11.3203125)"/>
<path d="M0 0 C6.67794826 1.66948707 12.51974575 5.47470199 16.4375 11.1875 C19.64600535 16.96280963 19.59889787 22.52698054 19 29 C17.43682216 34.02970693 14.8430587 37.4314455 11 41 C11 41.66 11 42.32 11 43 C13.01676899 44.3640201 15.12066651 45.50432746 17.25 46.68359375 C17.8275 47.11800781 18.405 47.55242187 19 48 C19 48.99 19 49.98 19 51 C14.31586501 53.34206749 8.0766327 52.50548912 3 52 C0.4140625 50.91796875 0.4140625 50.91796875 -1.875 49.5625 C-6.20327457 47.00974498 -10.00229526 46.5735367 -14.9375 46.4375 C-25.28899978 46.10276203 -32.79918131 43.81739624 -40.44140625 36.68359375 C-42.86772051 34.06268787 -44 32.63656386 -44 29 C-29.04691712 27.53092519 -14.00554027 27.90535079 1 28 C1 26.68 1 25.36 1 24 C-4.61 24 -10.22 24 -16 24 C-10 18 -10 18 -7.49609375 17.90234375 C-6.48675781 17.91394531 -5.47742188 17.92554687 -4.4375 17.9375 C-3.42558594 17.94652344 -2.41367188 17.95554687 -1.37109375 17.96484375 C-0.58863281 17.97644531 0.19382813 17.98804687 1 18 C1 16.68 1 15.36 1 14 C-0.98 14 -2.96 14 -5 14 C-3.46527032 9.27775484 -1.76054874 4.64144669 0 0 Z " fill="#000000" transform="translate(77,42)"/>
</svg>
