<?xml version="1.0" standalone="no"?>
<!DOCTYPE svg PUBLIC "-//W3C//DTD SVG 20010904//EN"
 "http://www.w3.org/TR/2001/REC-SVG-20010904/DTD/svg10.dtd">
<svg version="1.0" xmlns="http://www.w3.org/2000/svg"
 width="100.000000pt" height="100.000000pt" viewBox="0 0 100.000000 100.000000"
 preserveAspectRatio="xMidYMid meet">

<g transform="translate(0.000000,100.000000) scale(0.100000,-0.100000)"
fill="#000000" stroke="none">
<path d="M87 913 c-4 -3 -7 -44 -7 -90 l0 -83 90 0 90 0 0 90 0 90 -83 0 c-46
0 -87 -3 -90 -7z"/>
<path d="M300 830 l0 -90 90 0 90 0 0 90 0 90 -90 0 -90 0 0 -90z"/>
<path d="M520 830 l0 -90 90 0 90 0 0 90 0 90 -90 0 -90 0 0 -90z"/>
<path d="M740 830 l0 -90 90 0 91 0 -3 88 -3 87 -87 3 -88 3 0 -91z"/>
<path d="M80 610 l0 -90 90 0 90 0 0 90 0 90 -90 0 -90 0 0 -90z"/>
<path d="M300 610 l0 -90 90 0 90 0 0 90 0 90 -90 0 -90 0 0 -90z"/>
<path d="M520 610 l0 -90 90 0 90 0 0 90 0 90 -90 0 -90 0 0 -90z"/>
<path d="M740 610 l0 -90 90 0 90 0 0 90 0 90 -90 0 -90 0 0 -90z"/>
<path d="M80 390 l0 -90 90 0 90 0 0 90 0 90 -90 0 -90 0 0 -90z"/>
<path d="M300 390 l0 -90 90 0 90 0 0 90 0 90 -90 0 -90 0 0 -90z"/>
<path d="M520 390 l0 -90 90 0 90 0 0 90 0 90 -90 0 -90 0 0 -90z"/>
<path d="M740 390 l0 -90 90 0 90 0 0 90 0 90 -90 0 -90 0 0 -90z"/>
<path d="M82 173 l3 -88 88 -3 87 -3 0 91 0 90 -90 0 -91 0 3 -87z"/>
<path d="M300 170 l0 -90 90 0 90 0 0 90 0 90 -90 0 -90 0 0 -90z"/>
<path d="M520 170 l0 -90 90 0 90 0 0 90 0 90 -90 0 -90 0 0 -90z"/>
<path d="M740 170 l0 -91 88 3 87 3 3 88 3 87 -91 0 -90 0 0 -90z"/>
</g>
</svg>
