<?xml version="1.0" standalone="no"?>
<!DOCTYPE svg PUBLIC "-//W3C//DTD SVG 20010904//EN"
 "http://www.w3.org/TR/2001/REC-SVG-20010904/DTD/svg10.dtd">
<svg version="1.0" xmlns="http://www.w3.org/2000/svg"
 width="100.000000pt" height="100.000000pt" viewBox="0 0 100.000000 100.000000"
 preserveAspectRatio="xMidYMid meet">

<g transform="translate(0.000000,100.000000) scale(0.100000,-0.100000)"
fill="#000000" stroke="none">
<path d="M127 894 c-4 -4 -7 -22 -7 -41 0 -27 4 -33 21 -33 17 0 20 5 17 37
-3 35 -17 51 -31 37z"/>
<path d="M247 894 c-4 -4 -7 -22 -7 -41 0 -27 4 -33 21 -33 17 0 20 5 17 37
-3 35 -17 51 -31 37z"/>
<path d="M367 894 c-4 -4 -7 -22 -7 -41 0 -27 4 -33 21 -33 17 0 20 5 17 37
-3 35 -17 51 -31 37z"/>
<path d="M487 894 c-4 -4 -7 -22 -7 -41 0 -27 4 -33 21 -33 17 0 20 5 17 37
-3 35 -17 51 -31 37z"/>
<path d="M607 894 c-4 -4 -7 -22 -7 -41 0 -27 4 -33 21 -33 17 0 20 5 17 37
-3 35 -17 51 -31 37z"/>
<path d="M727 894 c-4 -4 -7 -22 -7 -41 0 -27 4 -33 21 -33 17 0 20 5 17 37
-3 35 -17 51 -31 37z"/>
<path d="M847 894 c-4 -4 -7 -22 -7 -41 0 -27 4 -33 21 -33 17 0 20 5 17 37
-3 35 -17 51 -31 37z"/>
<path d="M5 787 c-3 -7 -4 -140 -3 -297 l3 -285 495 0 495 0 0 295 0 295 -493
3 c-391 2 -494 0 -497 -11z m265 -257 l0 -130 40 0 c33 0 40 -3 40 -20 0 -18
-7 -20 -60 -20 l-60 0 0 150 c0 143 1 150 20 150 19 0 20 -7 20 -130z m260
110 c0 -14 -7 -20 -21 -20 -54 0 -86 -60 -73 -140 8 -47 46 -84 76 -74 16 5
19 2 16 -18 -4 -27 -36 -35 -77 -18 -87 36 -88 233 0 277 39 20 79 17 79 -7z
m200 -8 c51 -52 52 -177 2 -233 -23 -25 -35 -31 -77 -32 l-50 -2 -3 148 -3
147 52 0 c42 0 55 -5 79 -28z"/>
<path d="M650 515 c0 -70 4 -115 10 -115 6 0 19 9 29 19 40 40 40 161 1 193
-12 10 -26 18 -31 18 -5 0 -9 -52 -9 -115z"/>
<path d="M122 143 c2 -26 8 -38 18 -38 10 0 16 12 18 38 3 32 0 37 -18 37 -18
0 -21 -5 -18 -37z"/>
<path d="M242 143 c2 -26 8 -38 18 -38 10 0 16 12 18 38 3 32 0 37 -18 37 -18
0 -21 -5 -18 -37z"/>
<path d="M362 143 c2 -26 8 -38 18 -38 10 0 16 12 18 38 3 32 0 37 -18 37 -18
0 -21 -5 -18 -37z"/>
<path d="M482 143 c2 -26 8 -38 18 -38 10 0 16 12 18 38 3 32 0 37 -18 37 -18
0 -21 -5 -18 -37z"/>
<path d="M602 143 c2 -26 8 -38 18 -38 10 0 16 12 18 38 3 32 0 37 -18 37 -18
0 -21 -5 -18 -37z"/>
<path d="M722 143 c2 -26 8 -38 18 -38 10 0 16 12 18 38 3 32 0 37 -18 37 -18
0 -21 -5 -18 -37z"/>
<path d="M842 143 c2 -26 8 -38 18 -38 10 0 16 12 18 38 3 32 0 37 -18 37 -18
0 -21 -5 -18 -37z"/>
</g>
</svg>
