<?xml version="1.0" standalone="no"?>
<!DOCTYPE svg PUBLIC "-//W3C//DTD SVG 20010904//EN"
 "http://www.w3.org/TR/2001/REC-SVG-20010904/DTD/svg10.dtd">
<svg version="1.0" xmlns="http://www.w3.org/2000/svg"
 width="100.000000pt" height="100.000000pt" viewBox="0 0 100.000000 100.000000"
 preserveAspectRatio="xMidYMid meet">

<g transform="translate(0.000000,100.000000) scale(0.100000,-0.100000)"
fill="#000000" stroke="none">
<path d="M383 945 c-80 -22 -132 -52 -199 -116 -74 -72 -121 -157 -104 -189
19 -35 50 -21 83 35 43 74 104 132 177 168 59 29 73 32 160 32 82 0 103 -4
152 -27 80 -37 152 -107 191 -187 29 -60 32 -74 32 -161 0 -88 -3 -101 -33
-162 -41 -83 -119 -158 -200 -189 -79 -32 -204 -32 -282 -1 -71 28 -151 99
-193 170 -35 60 -68 75 -90 41 -28 -45 117 -222 225 -272 173 -82 373 -50 511
82 32 30 71 78 87 106 77 135 78 308 4 446 -34 61 -122 149 -183 183 -99 54
-231 70 -338 41z"/>
<path d="M512 668 c-21 -21 -13 -43 28 -83 l41 -40 -262 -5 c-235 -4 -263 -7
-273 -22 -8 -13 -8 -23 0 -35 10 -16 38 -19 273 -23 l262 -5 -41 -40 c-22 -21
-40 -46 -40 -55 0 -20 19 -40 40 -40 20 0 180 160 180 180 0 20 -161 180 -181
180 -8 0 -20 -5 -27 -12z"/>
</g>
</svg>
