<?xml version="1.0" standalone="no"?>
<!DOCTYPE svg PUBLIC "-//W3C//DTD SVG 20010904//EN"
 "http://www.w3.org/TR/2001/REC-SVG-20010904/DTD/svg10.dtd">
<svg version="1.0" xmlns="http://www.w3.org/2000/svg"
 width="100.000000pt" height="100.000000pt" viewBox="0 0 100.000000 100.000000"
 preserveAspectRatio="xMidYMid meet">

<g transform="translate(0.000000,100.000000) scale(0.100000,-0.100000)"
fill="#000000" stroke="none">
<path d="M57 862 c-14 -15 -17 -40 -17 -120 l0 -102 460 0 460 0 0 103 c0 88
-3 106 -18 120 -17 15 -62 17 -444 17 -399 0 -426 -1 -441 -18z m133 -77 c26
-32 -13 -81 -47 -59 -35 22 -23 74 17 74 10 0 23 -7 30 -15z m120 0 c26 -32
-13 -81 -47 -59 -35 22 -23 74 17 74 10 0 23 -7 30 -15z m550 -25 l0 -40 -240
0 -240 0 0 40 0 40 240 0 240 0 0 -40z"/>
<path d="M42 363 l3 -238 455 0 455 0 3 238 2 237 -460 0 -460 0 2 -237z m276
141 c17 -12 22 -25 22 -58 0 -23 -7 -51 -15 -62 -24 -32 -17 -51 28 -76 27
-15 43 -31 45 -46 3 -22 2 -22 -118 -22 -120 0 -121 0 -118 22 2 15 18 31 46
46 44 25 51 44 27 76 -8 11 -15 38 -15 60 0 67 47 96 98 60z m522 -44 c0 -19
-7 -20 -160 -20 -153 0 -160 1 -160 20 0 19 7 20 160 20 153 0 160 -1 160 -20z
m0 -100 c0 -19 -7 -20 -160 -20 -153 0 -160 1 -160 20 0 19 7 20 160 20 153 0
160 -1 160 -20z m-60 -100 c0 -19 -7 -20 -130 -20 -123 0 -130 1 -130 20 0 19
7 20 130 20 123 0 130 -1 130 -20z"/>
</g>
</svg>
