<?xml version="1.0" standalone="no"?>
<!DOCTYPE svg PUBLIC "-//W3C//DTD SVG 20010904//EN"
 "http://www.w3.org/TR/2001/REC-SVG-20010904/DTD/svg10.dtd">
<svg version="1.0" xmlns="http://www.w3.org/2000/svg"
 width="100.000000pt" height="100.000000pt" viewBox="0 0 100.000000 100.000000"
 preserveAspectRatio="xMidYMid meet">

<g transform="translate(0.000000,100.000000) scale(0.100000,-0.100000)"
fill="#000000" stroke="none">
<path d="M406 984 c-70 -22 -149 -103 -170 -174 -30 -101 -17 -134 50 -128 41
3 50 14 59 71 3 21 19 53 36 72 75 85 213 65 260 -39 38 -83 13 -151 -78 -215
-98 -69 -123 -122 -123 -261 0 -98 7 -110 62 -110 49 0 58 18 58 115 0 87 15
122 62 150 55 32 99 78 126 129 21 42 26 65 26 126 0 117 -50 198 -154 250
-57 29 -149 35 -214 14z"/>
<path d="M444 107 c-3 -8 -4 -34 -2 -58 l3 -44 55 0 55 0 0 55 0 55 -53 3
c-38 2 -54 -1 -58 -11z"/>
</g>
</svg>
