<?xml version="1.0" standalone="no"?>
<!DOCTYPE svg PUBLIC "-//W3C//DTD SVG 20010904//EN"
 "http://www.w3.org/TR/2001/REC-SVG-20010904/DTD/svg10.dtd">
<svg version="1.0" xmlns="http://www.w3.org/2000/svg"
 width="96.000000pt" height="96.000000pt" viewBox="0 0 96.000000 96.000000"
 preserveAspectRatio="xMidYMid meet">

<g transform="translate(0.000000,96.000000) scale(0.100000,-0.100000)"
fill="#000000" stroke="none">
<path d="M147 894 c-4 -4 -7 -72 -7 -150 l0 -143 -27 -3 -28 -3 0 -145 0 -145
27 -3 c21 -3 27 -9 30 -30 2 -21 9 -28 31 -30 22 -3 27 -8 27 -32 0 -24 -5
-29 -27 -32 -22 -2 -28 -8 -28 -28 0 -20 5 -25 25 -25 20 0 26 6 28 28 3 26 5
27 63 27 59 0 59 0 59 -29 0 -25 -4 -30 -27 -33 -22 -2 -28 -8 -28 -28 0 -20
5 -25 25 -25 20 0 26 6 28 27 3 26 6 27 65 30 l62 3 3 94 c2 77 0 95 -14 105
-9 7 -14 21 -12 32 3 16 12 19 58 19 46 0 55 -3 58 -19 2 -11 -3 -25 -12 -32
-14 -10 -16 -28 -14 -105 l3 -94 62 -3 c59 -3 62 -4 65 -30 2 -21 8 -27 28
-27 20 0 25 5 25 25 0 20 -6 26 -27 28 -24 3 -28 8 -28 33 0 29 0 29 59 29 58
0 60 -1 63 -28 2 -21 8 -27 28 -27 20 0 25 5 25 25 0 20 -6 26 -27 28 -23 3
-28 8 -28 32 0 24 5 29 28 32 21 2 28 9 30 30 3 21 9 27 30 30 l27 3 0 145 0
145 -27 3 -27 3 -3 147 -3 147 -55 0 c-52 0 -55 -1 -58 -27 -3 -21 -9 -27 -30
-30 -21 -2 -28 -9 -30 -30 l-3 -28 -159 0 -159 0 -3 28 c-2 21 -9 28 -30 30
-21 3 -27 9 -30 30 -3 25 -7 27 -53 30 -28 2 -54 0 -58 -4z m228 -384 c0 -18
-6 -26 -23 -28 -13 -2 -25 3 -28 12 -10 26 4 48 28 44 17 -2 23 -10 23 -28z
m260 0 c0 -18 -6 -26 -23 -28 -13 -2 -25 3 -28 12 -10 26 4 48 28 44 17 -2 23
-10 23 -28z"/>
</g>
</svg>
