<svg width="14" height="14" viewBox="0 0 14 14" fill="none" xmlns="http://www.w3.org/2000/svg">
<path fill-rule="evenodd" clip-rule="evenodd" d="M0.10839 5.16138C-0.19523 4.3906 0.183481 3.51963 0.954264 3.21601L2.57771 2.57651L3.21625 0.955486C3.51987 0.184703 4.39084 -0.194008 5.16163 0.109611L7.00097 0.834146L8.84453 0.107949C9.61531 -0.195671 10.4863 0.18304 10.7899 0.953823L11.43 2.57879L13.0519 3.21767C13.8227 3.52129 14.2014 4.39226 13.8978 5.16305L13.1729 7.00331L13.898 8.84409C14.2016 9.61487 13.8229 10.4858 13.0521 10.7895L11.4297 11.4285L10.7897 13.0533C10.4861 13.8241 9.61511 14.2028 8.84433 13.8992L7.00097 13.1731L5.16183 13.8975C4.39104 14.2011 3.52007 13.8224 3.21645 13.0516L2.57798 11.4308L0.954068 10.7911C0.183284 10.4875 -0.195427 9.61653 0.108193 8.84575L0.833946 7.00332L0.10839 5.16138ZM10.5365 5.52405L9.46346 4.47595L6.08502 7.93494L4.5286 6.38934L3.47165 7.45369L6.10128 10.0651L10.5365 5.52405Z" fill="url(#paint0_linear_6_173)"/>
<defs>
<linearGradient id="paint0_linear_6_173" x1="7.00308" y1="0.00317383" x2="7.00308" y2="14.004" gradientUnits="userSpaceOnUse">
<stop stop-color="#56C4F5"/>
<stop offset="1" stop-color="#2AA8E3"/>
</linearGradient>
</defs>
</svg>
